<svg version="1.1" xmlns="http://www.w3.org/2000/svg" style="display: block;" viewBox="0 0 2048 2048" width="1024" height="1024" preserveAspectRatio="none">
<path transform="translate(0,0)" fill="rgb(255,255,255)" d="M 0 0 L 2048 0 L 2048 2048 L 0 2048 L 0 0 z"/>
<path transform="translate(0,0)" fill="rgb(91,154,76)" d="M 518.894 671.507 L 995.986 671.298 L 995.961 814.732 L 614.011 814.728 L 614.024 953.382 L 950.174 953.18 L 950.249 1095.76 L 743.5 1095.82 L 613.99 1095.77 L 614.002 1233.95 L 877.47 1233.48 C 869.765 1253.9 859.134 1276.91 850.503 1297.22 C 839.457 1323.2 828.602 1350.53 817.015 1376.14 C 703.269 1374.94 587.44 1376.06 473.567 1376.04 C 475.594 1285.4 473.959 1188.36 473.97 1097.37 L 473.685 671.711 L 518.894 671.507 z"/>
<path transform="translate(0,0)" fill="rgb(91,154,76)" d="M 1029.68 964.154 L 1402.18 964.161 C 1422.11 1009.15 1443.66 1060.39 1462.11 1105.99 L 1402.5 1105.96 L 969.827 1106.03 L 1029.68 964.154 z"/>
<path transform="translate(0,0)" fill="rgb(91,154,76)" d="M 1184.9 671.5 L 1279.21 671.186 C 1290.56 694.203 1305.18 731.802 1315.55 756.301 L 1386.05 924.123 L 1233.23 924.078 L 1226.02 906.104 L 1215.49 880.644 C 1210.88 894.547 1204.05 910.735 1198.43 924.287 L 1045.81 924.051 C 1080.58 841.427 1116.16 752.91 1152.7 671.585 L 1184.9 671.5 z"/>
<path transform="translate(0,0)" fill="rgb(91,154,76)" d="M 956.512 1140.18 L 1108.63 1140.03 L 1007.63 1375.99 C 957.092 1376.42 906.551 1376.5 856.01 1376.22 L 956.512 1140.18 z"/>
<path transform="translate(0,0)" fill="rgb(91,154,76)" d="M 1323.19 1140.26 C 1373.46 1140.21 1425.54 1141.36 1475.57 1140.28 L 1574.96 1375.69 C 1563.1 1376.86 1536.43 1376.17 1523.68 1376.18 L 1424.03 1376.24 C 1392.54 1298.91 1356.93 1216.66 1323.19 1140.26 z"/>
</svg>